<svg width="12" height="12" viewBox="0 0 12 12" fill="none" xmlns="http://www.w3.org/2000/svg">
<path d="M1.33992 11.8033C1.0785 12.0656 0.788031 12.0656 0.526612 11.8033L0.207099 11.4827C-0.054319 11.2204 -0.0833656 10.929 0.207099 10.6667L9.18249 1.74863C9.24057 1.69035 9.21153 1.60292 9.1244 1.60292L1.28182 1.71949C0.904218 1.71949 0.700891 1.51548 0.700891 1.13661V0.582879C0.700891 0.204007 0.904218 3.96154e-07 1.28182 3.79648e-07L9.96675 0C10.3443 -1.64868e-08 10.7801 -3.62811e-08 11.1286 0.0582886C11.39 0.0874314 11.5643 0.174863 11.6805 0.291439C11.8257 0.437159 11.9129 0.612023 11.9419 0.874319C11.971 1.22404 12 1.6612 12 2.01092V10.3461C12 10.725 11.7967 10.929 11.4191 10.929H10.9253C10.5477 10.929 10.3443 10.725 10.3443 10.3461L10.4605 2.76868C10.4605 2.68124 10.3734 2.65209 10.3153 2.71038L1.33992 11.8033Z" fill="black"/>
</svg>
