<svg width="42" height="42" viewBox="0 0 42 42" fill="currentColor" xmlns="http://www.w3.org/2000/svg">
<path d="M21 38.5C18.5792 38.5 16.3042 38.0406 14.175 37.1219C12.0458 36.2031 10.1937 34.9562 8.61875 33.3813C7.04375 31.8062 5.79688 29.9542 4.87812 27.825C3.95937 25.6958 3.5 23.4208 3.5 21C3.5 18.5792 3.95937 16.3042 4.87812 14.175C5.79688 12.0458 7.04375 10.1937 8.61875 8.61875C10.1937 7.04375 12.0458 5.79688 14.175 4.87812C16.3042 3.95937 18.5792 3.5 21 3.5C23.4208 3.5 25.6958 3.95937 27.825 4.87812C29.9542 5.79688 31.8062 7.04375 33.3813 8.61875C34.9562 10.1937 36.2031 12.0458 37.1219 14.175C38.0406 16.3042 38.5 18.5792 38.5 21C38.5 21.7875 38.4562 22.5604 38.3687 23.3188C38.2812 24.0771 38.1354 24.8208 37.9312 25.55C37.5229 25.0833 37.049 24.6896 36.5094 24.3687C35.9698 24.0479 35.3792 23.8292 34.7375 23.7125C34.825 23.275 34.8906 22.8302 34.9344 22.3781C34.9781 21.926 35 21.4667 35 21C35 17.0917 33.6437 13.7812 30.9312 11.0687C28.2188 8.35625 24.9083 7 21 7C17.0917 7 13.7812 8.35625 11.0687 11.0687C8.35625 13.7812 7 17.0917 7 21C7 24.9083 8.35625 28.2188 11.0687 30.9312C13.7812 33.6437 17.0917 35 21 35C22.4875 35 23.9094 34.7812 25.2656 34.3438C26.6219 33.9062 27.8687 33.2937 29.0063 32.5063C29.3562 33.0021 29.7865 33.4396 30.2969 33.8188C30.8073 34.1979 31.3542 34.4896 31.9375 34.6938C30.45 35.8896 28.7802 36.8229 26.9281 37.4937C25.076 38.1646 23.1 38.5 21 38.5ZM32.1344 30.8656C31.7115 30.4427 31.5 29.925 31.5 29.3125C31.5 28.7 31.7115 28.1823 32.1344 27.7594C32.5573 27.3365 33.075 27.125 33.6875 27.125C34.3 27.125 34.8177 27.3365 35.2406 27.7594C35.6635 28.1823 35.875 28.7 35.875 29.3125C35.875 29.925 35.6635 30.4427 35.2406 30.8656C34.8177 31.2885 34.3 31.5 33.6875 31.5C33.075 31.5 32.5573 31.2885 32.1344 30.8656ZM26.775 29.225L19.25 21.7V12.25H22.75V20.3L29.225 26.775L26.775 29.225Z" fill="currentColor"/>
</svg>
