<svg width="34" height="34" viewBox="0 0 34 34" fill="currentColor" xmlns="http://www.w3.org/2000/svg">
<path d="M22.5 33.75L11.25 29.8125L2.53125 33.1875C1.90625 33.4375 1.32812 33.3672 0.796875 32.9766C0.265625 32.5859 0 32.0625 0 31.4062V5.15625C0 4.75 0.117188 4.39062 0.351562 4.07812C0.585938 3.76562 0.90625 3.53125 1.3125 3.375L11.25 0L22.5 3.9375L31.2188 0.5625C31.8438 0.3125 32.4219 0.382812 32.9531 0.773438C33.4844 1.16406 33.75 1.6875 33.75 2.34375V28.5938C33.75 29 33.6328 29.3594 33.3984 29.6719C33.1641 29.9844 32.8438 30.2188 32.4375 30.375L22.5 33.75ZM20.625 29.1562V7.21875L13.125 4.59375V26.5313L20.625 29.1562ZM24.375 29.1562L30 27.2812V5.0625L24.375 7.21875V29.1562ZM3.75 28.6875L9.375 26.5313V4.59375L3.75 6.46875V28.6875Z" fill="currentColor"/>
</svg>
