<svg width="42" height="42" viewBox="0 0 42 42" fill="none" xmlns="http://www.w3.org/2000/svg">
<g clip-path="url(#clip0_31_630)">
<path d="M16.4516 3.2759C16.4516 1.46638 14.9852 0 13.1748 0H3.34231C1.53279 0 0.0664062 1.46638 0.0664062 3.2759V13.1093C0.0664062 14.9188 1.53279 16.3852 3.34231 16.3852H13.1757C14.9852 16.3852 16.4526 14.9188 16.4526 13.1093L16.4516 3.2759ZM13.5094 13.0534C13.5094 13.2685 13.335 13.442 13.1198 13.442H3.33188C3.11671 13.442 2.9423 13.2676 2.9423 13.0534V3.26453C2.9423 3.04936 3.11671 2.87589 3.33188 2.87589H13.1207C13.3359 2.87589 13.5103 3.05031 13.5103 3.26453L13.5094 13.0534Z" fill="white"/>
<path d="M11.369 5.01514H5.08264V11.3015H11.369V5.01514Z" fill="white"/>
<path d="M16.4516 28.8907C16.4516 27.0821 14.9852 25.6157 13.1748 25.6157H3.34231C1.53279 25.6157 0.0664062 27.0821 0.0664062 28.8907V38.725C0.0664062 40.5336 1.53279 42 3.34231 42H13.1757C14.9852 42 16.4526 40.5336 16.4526 38.725L16.4516 28.8907ZM13.5094 38.7193C13.5094 38.9345 13.3501 39.125 13.1349 39.125H3.32809C3.11292 39.125 2.9423 38.9345 2.9423 38.7193V28.9106C2.9423 28.6954 3.11292 28.4907 3.32809 28.4907H13.1359C13.3501 28.4907 13.5103 28.6964 13.5103 28.9106L13.5094 38.7193Z" fill="white"/>
<path d="M11.369 30.6299H5.08264V36.9836H11.369V30.6299Z" fill="white"/>
<path d="M41.9328 3.2759C41.9328 1.46638 40.4664 0 38.6569 0H28.8235C27.014 0 25.5466 1.46638 25.5466 3.2759V13.1093C25.5466 14.9188 27.013 16.3852 28.8235 16.3852H38.6569C40.4664 16.3852 41.9328 14.9188 41.9328 13.1093V3.2759ZM38.9915 13.0534C38.9915 13.2685 38.8161 13.442 38.601 13.442H28.8121C28.5969 13.442 28.4235 13.2676 28.4235 13.0534V3.26453C28.4235 3.04936 28.5979 2.87589 28.8121 2.87589H38.6C38.8161 2.87589 38.9905 3.05031 38.9905 3.26453L38.9915 13.0534Z" fill="white"/>
<path d="M36.9166 5.01514H30.5629V11.3015H36.9166V5.01514Z" fill="white"/>
<path d="M3.7982 18.2573C3.32521 18.2573 2.94226 18.6402 2.94226 19.1132V21.2811C2.94226 21.7541 3.32521 22.1361 3.7982 22.1361H5.81815V22.2157C5.81815 22.6896 6.2011 23.0726 6.6741 23.0726H11.5699V23.1522C11.5699 23.6261 11.9529 24.0081 12.4259 24.0081H14.5937C15.0667 24.0081 15.4497 23.6261 15.4497 23.1522V21.0526C15.4497 20.5796 15.0667 20.1967 14.5937 20.1967H13.5103V19.1123C13.5103 18.6393 13.1273 18.2563 12.6543 18.2563H11.4884C11.0154 18.2563 10.6325 18.6393 10.6325 19.1123V20.1967H6.82197V19.1123C6.82197 18.6393 6.43902 18.2563 5.96603 18.2563L3.7982 18.2573Z" fill="white"/>
<path d="M19.7284 14.0582C19.7284 14.5312 20.1114 14.9141 20.5844 14.9141H23.6878C24.1608 14.9141 24.5428 14.5312 24.5428 14.0582V11.8904C24.5428 11.4174 24.1608 11.0344 23.6878 11.0344H22.6043V4.34614H22.7503C23.2243 4.34614 23.6063 3.96319 23.6063 3.49019V2.32713C23.6063 1.85414 23.2243 1.47119 22.7503 1.47119H18.645C18.172 1.47119 17.7891 1.85414 17.7891 2.32713V3.49114C17.7891 3.96414 18.172 4.34709 18.645 4.34709H19.7284V7.42393H18.645C18.172 7.42393 17.7891 7.80688 17.7891 8.27988V8.44102C17.7891 8.91401 18.172 9.29696 18.645 9.29696H19.7284V14.0582Z" fill="white"/>
<path d="M22.2034 17.1738C22.2034 16.7008 21.8205 16.3179 21.3475 16.3179H19.1797C18.7067 16.3179 18.3237 16.7008 18.3237 17.1738V19.3416C18.3237 19.8146 18.7067 20.1976 19.1797 20.1976H21.3475C21.8205 20.1976 22.2034 19.8146 22.2034 19.3416V17.1738Z" fill="white"/>
<path d="M37.5858 26.9523H36.5033C36.0293 26.9523 35.6473 27.3353 35.6473 27.8083V31.8491C35.6473 32.3211 36.0293 32.7041 36.5033 32.7041H40.6095C41.0835 32.7041 41.4655 32.3211 41.4655 31.8491V19.1133C41.4655 18.6403 41.0835 18.2573 40.6095 18.2573H38.4417C37.9697 18.2573 37.5867 18.6403 37.5867 19.1133L37.5858 26.9523Z" fill="white"/>
<path d="M27.8889 23.809H28.0358C28.5088 23.809 28.8918 23.427 28.8918 22.953V20.8525C28.8918 20.3795 28.5088 19.9966 28.0358 19.9966H25.868C25.395 19.9966 25.0121 20.3795 25.0121 20.8525V21.9369H21.0527C20.5797 21.9369 20.1968 22.3199 20.1968 22.7929V27.7693C20.1968 28.2423 20.5797 28.6252 21.0527 28.6252H27.033C27.505 28.6252 27.8879 28.2423 27.8879 27.7693V23.809H27.8889Z" fill="white"/>
<path d="M35.6464 19.2611V18.1767C35.6464 17.7037 35.2634 17.3208 34.7904 17.3208H34.5629C34.0909 17.3208 33.7079 17.7037 33.7079 18.1767V19.2611H31.688C31.214 19.2611 30.832 19.6441 30.832 20.1171V23.1551C30.832 23.6271 31.214 24.0101 31.688 24.0101H34.7904C35.2634 24.0101 35.6464 23.6271 35.6464 23.1551V19.2611Z" fill="white"/>
<path d="M29.8946 29.827H27.8746C27.4016 29.827 27.0187 30.21 27.0187 30.683V31.8489C27.0187 32.3209 27.4016 32.7039 27.8746 32.7039H29.8946V40.1988C29.8946 40.6718 30.2775 41.0548 30.7505 41.0548H32.851C33.324 41.0548 33.707 40.6718 33.707 40.1988V26.8052C33.707 26.3322 33.324 25.9492 32.851 25.9492H30.7505C30.2775 25.9492 29.8946 26.3322 29.8946 26.8052V29.827Z" fill="white"/>
<path d="M20.264 40.198C20.264 40.671 20.647 41.053 21.12 41.053H24.2224C24.6964 41.053 25.0784 40.671 25.0784 40.198V31.6187C25.0784 31.1466 24.6964 30.7637 24.2224 30.7637H21.12C20.647 30.7637 20.264 31.1466 20.264 31.6187V40.198Z" fill="white"/>
<path d="M34.9772 40.1982C34.9772 40.6712 35.3601 41.0532 35.8322 41.0532H38.6701C39.1422 41.0532 39.5251 40.6712 39.5251 40.1982V38.0967C39.5251 37.6246 39.1422 37.2417 38.6701 37.2417H35.8322C35.3601 37.2417 34.9772 37.6246 34.9772 38.0967V40.1982Z" fill="white"/>
</g>
<defs>
<clipPath id="clip0_31_630">
<rect width="42" height="42" fill="white"/>
</clipPath>
</defs>
</svg>
