<svg width="50" height="50" viewBox="0 0 50 50" fill="none" xmlns="http://www.w3.org/2000/svg">
<circle cx="25" cy="25" r="23.85" stroke="#59636E" stroke-width="2.3"/>
<mask id="mask0_25_775" style="mask-type:alpha" maskUnits="userSpaceOnUse" x="6" y="5" width="39" height="39">
<rect x="6.36365" y="5.45459" width="38.1818" height="38.1818" fill="#D9D9D9"/>
</mask>
<g mask="url(#mask0_25_775)">
<path d="M21.0796 40.4544L20.4432 35.3635C20.0985 35.2309 19.7737 35.0718 19.4688 34.8862C19.1639 34.7006 18.8656 34.5018 18.5739 34.2896L13.8409 36.2783L9.46594 28.7215L13.5625 25.6192C13.536 25.4336 13.5228 25.2546 13.5228 25.0823V24.0084C13.5228 23.836 13.536 23.6571 13.5625 23.4715L9.46594 20.3692L13.8409 12.8124L18.5739 14.801C18.8656 14.5889 19.1705 14.39 19.4887 14.2044C19.8069 14.0188 20.125 13.8597 20.4432 13.7271L21.0796 8.63623H29.8296L30.4659 13.7271C30.8106 13.8597 31.1354 14.0188 31.4404 14.2044C31.7453 14.39 32.0436 14.5889 32.3353 14.801L37.0682 12.8124L41.4432 20.3692L37.3466 23.4715C37.3731 23.6571 37.3864 23.836 37.3864 24.0084V25.0823C37.3864 25.2546 37.3599 25.4336 37.3069 25.6192L41.4034 28.7215L37.0284 36.2783L32.3353 34.2896C32.0436 34.5018 31.7387 34.7006 31.4205 34.8862C31.1023 35.0718 30.7841 35.2309 30.4659 35.3635L29.8296 40.4544H21.0796ZM25.5341 30.1135C27.072 30.1135 28.3845 29.5699 29.4716 28.4828C30.5587 27.3957 31.1023 26.0832 31.1023 24.5453C31.1023 23.0074 30.5587 21.6949 29.4716 20.6078C28.3845 19.5207 27.072 18.9771 25.5341 18.9771C23.9697 18.9771 22.6506 19.5207 21.5767 20.6078C20.5029 21.6949 19.9659 23.0074 19.9659 24.5453C19.9659 26.0832 20.5029 27.3957 21.5767 28.4828C22.6506 29.5699 23.9697 30.1135 25.5341 30.1135Z" fill="#59636E"/>
</g>
</svg>
