<svg width="50" height="50" viewBox="0 0 50 50" fill="currentColor" xmlns="http://www.w3.org/2000/svg">
<path d="M25.2083 45.8332C22.2916 45.8332 19.5573 45.2776 17.0052 44.1665C14.4531 43.0554 12.2309 41.5537 10.3385 39.6613C8.44614 37.7689 6.9444 35.5467 5.83329 32.9946C4.72218 30.4425 4.16663 27.7082 4.16663 24.7915C4.16663 19.7221 5.78121 15.2516 9.01038 11.38C12.2395 7.50852 16.3541 5.104 21.3541 4.1665C20.7291 7.604 20.9201 10.9634 21.927 14.2446C22.934 17.5259 24.6701 20.3991 27.1354 22.8644C29.6007 25.3297 32.4739 27.0658 35.7552 28.0728C39.0364 29.0797 42.3958 29.2707 45.8333 28.6457C44.9305 33.6457 42.5347 37.7603 38.6458 40.9894C34.7569 44.2186 30.2777 45.8332 25.2083 45.8332ZM25.2083 41.6665C28.2638 41.6665 31.0937 40.9026 33.6979 39.3748C36.302 37.8471 38.3507 35.7464 39.8437 33.0728C36.8576 32.795 34.0277 32.0398 31.3541 30.8071C28.6805 29.5745 26.2847 27.8991 24.1666 25.7811C22.0486 23.663 20.3645 21.2672 19.1145 18.5936C17.8645 15.92 17.118 13.0901 16.875 10.104C14.2013 11.5971 12.1093 13.6544 10.5989 16.2759C9.0885 18.8974 8.33329 21.7359 8.33329 24.7915C8.33329 29.479 9.97392 33.4634 13.2552 36.7446C16.5364 40.0259 20.5208 41.6665 25.2083 41.6665Z" fill="currentColor"/>
</svg>
